<svg xmlns="http://www.w3.org/2000/svg" xmlns:xlink="http://www.w3.org/1999/xlink" viewBox="0 0 11756 4713"><defs><style>.a,.d{fill:none;}.b{clip-path:url(#a);}.c{fill:#2e4be0;}.d{stroke:#0070f9;stroke-miterlimit:10;stroke-width:20px;}.e{fill:#fff;}</style><clipPath id="a"><rect class="a" width="11756" height="4713"/></clipPath></defs><title>citybg</title><g class="b"><path class="c" d="M11925,4221c-2022,198.68-4055,585.69-6077,585-2008-.68-4005-387.68-6013-585L0,0H11756Q11840.5,2110.5,11925,4221Z"/><rect class="d" x="954" y="2619" width="567" height="1890"/><rect class="d" x="1521" y="1368" width="882" height="3141"/><rect class="d" x="2652.51" y="3987.88" width="290.27" height="551.69"/><rect class="d" x="3033" y="3987" width="1440" height="432"/><rect class="d" x="2862" y="4257" width="36" height="72"/><rect class="d" x="-36" y="2502" width="990" height="1890"/><rect class="d" x="10665" y="2601" width="1242" height="2106"/><rect class="d" x="2403" y="1791" width="2322" height="2826"/><rect class="d" x="4725" y="2025" width="655" height="2688"/><rect class="d" x="5382" y="2637" width="1857" height="2076"/><rect class="d" x="7236" y="1773" width="1116" height="2943"/><rect class="d" x="8352" y="3222" width="1683" height="1491"/><rect class="d" x="10035" y="2385" width="630" height="2331"/><path class="e" d="M11921.5,5013H-165.5V4221Q2855.74,4616.94,5877,4617q3022.29.06,6044.5-396Z"/><rect class="d" x="2653" y="1952.53" width="290.27" height="199.97"/><rect class="d" x="2653" y="2152.5" width="290.27" height="199.97"/><rect class="d" x="3162.23" y="1952.53" width="290.27" height="199.97"/><rect class="d" x="3162.23" y="2152.5" width="290.27" height="199.97"/><rect class="d" x="3678.28" y="1952.53" width="290.27" height="199.97"/><rect class="d" x="3678.28" y="2152.5" width="290.27" height="199.97"/><rect class="d" x="4182.73" y="1952.53" width="290.27" height="199.97"/><rect class="d" x="4182.73" y="2152.5" width="290.27" height="199.97"/><rect class="d" x="2653" y="2641.53" width="290.27" height="199.97"/><rect class="d" x="2653" y="2841.5" width="290.27" height="199.97"/><rect class="d" x="3162.23" y="2641.53" width="290.27" height="199.97"/><rect class="d" x="3162.23" y="2841.5" width="290.27" height="199.97"/><rect class="d" x="3678.28" y="2641.53" width="290.27" height="199.97"/><rect class="d" x="3678.28" y="2841.5" width="290.27" height="199.97"/><rect class="d" x="4182.73" y="2641.53" width="290.27" height="199.97"/><rect class="d" x="4182.73" y="2841.5" width="290.27" height="199.97"/><rect class="d" x="2653" y="3316.53" width="290.27" height="199.97"/><rect class="d" x="2653" y="3516.5" width="290.27" height="199.97"/><rect class="d" x="3162.23" y="3316.53" width="290.27" height="199.97"/><rect class="d" x="3162.23" y="3516.5" width="290.27" height="199.97"/><rect class="d" x="3678.28" y="3316.53" width="290.27" height="199.97"/><rect class="d" x="3678.28" y="3516.5" width="290.27" height="199.97"/><rect class="d" x="4182.73" y="3316.53" width="290.27" height="199.97"/><rect class="d" x="4182.73" y="3516.5" width="290.27" height="199.97"/></g></svg>