<svg xmlns="http://www.w3.org/2000/svg" viewBox="0 0 508 442.5"><title>cloud-server</title><path d="M414.7,286.7c51.4,0,93.3-41.3,93.3-92.1a91.56,91.56,0,0,0-39.2-75C459.3,51.2,400.2,0,329.6,0A141,141,0,0,0,210.8,64.7,103.45,103.45,0,0,0,82.1,103.3C35.7,108.8,0,148.1,0,194.6c0,50.8,41.8,92.1,93.3,92.1H245.8v57.4h-41v41H49.2v16.4H204.9v41h98.3v-41H458.9V385.1H303.2v-41h-41V286.7ZM286.8,426H221.3V360.5h65.5ZM16.4,194.6c0-39.4,31.2-72.5,71.1-75.4l4.3-.3,2.2-3.7a87,87,0,0,1,74.9-42.9,88,88,0,0,1,41.2,10.3l7.1,3.8,3.9-7a124.47,124.47,0,0,1,108.5-63c63.5,0,116.5,46.8,123.4,108.9l.4,3.9,3.3,2.1a75.23,75.23,0,0,1,34.9,63.4c0,41.8-34.5,75.7-76.9,75.7H93.3C50.9,270.4,16.4,236.4,16.4,194.6Z"/><rect x="245.8" y="385.1" width="16.4" height="16.4"/><path d="M327.7,33V49.4a85.91,85.91,0,0,1,85.8,85.8h16.4A102.26,102.26,0,0,0,327.7,33Z"/></svg>