<svg xmlns="http://www.w3.org/2000/svg" viewBox="0 0 71.16 17.46"><defs><style>.a{fill:#fff;}</style></defs><title>drop3</title><path class="a" d="M7.74,13.46H5.94L6.3,12.1l0,0A3.33,3.33,0,0,1,3,13.58c-2.08,0-3-.72-3-2.24A17.26,17.26,0,0,1,.66,7.5C1.34,5,2.52,4,5,4c1.66,0,2.44.42,2.6,1.38l0,0L8.74.12h1.84ZM2.66,7.16A14.8,14.8,0,0,0,2,10.7c0,1.06.46,1.4,1.88,1.4s2.2-.44,2.6-1.68A14.66,14.66,0,0,0,7.16,7c0-1.08-.52-1.48-2-1.48S3.06,5.9,2.66,7.16Z"/><path class="a" d="M13.84,4.12l-.38,1.2,0,0a3.25,3.25,0,0,1,2.9-1.4c1.34,0,2.06.58,2.06,1.68a7.89,7.89,0,0,1-.3,1.86H16.38a5.3,5.3,0,0,0,.24-1.26c0-.54-.36-.8-1.14-.8a2.22,2.22,0,0,0-1.9.9A4.66,4.66,0,0,0,13,7.9l-1.18,5.56H10l2-9.34Z"/><path class="a" d="M27.06,4.54a2.17,2.17,0,0,1,.7,1.74A17.42,17.42,0,0,1,27.1,10c-.8,2.86-1.78,3.58-4.94,3.58-1.64,0-2.46-.16-3-.54a2.2,2.2,0,0,1-.7-1.82,19.24,19.24,0,0,1,1-4.7,3.33,3.33,0,0,1,2.36-2.3A8.43,8.43,0,0,1,24.1,4C25.76,4,26.56,4.14,27.06,4.54ZM21.18,7a18.19,18.19,0,0,0-.78,3.82c0,1,.38,1.28,2,1.28s2.26-.36,2.66-1.72a18.55,18.55,0,0,0,.72-3.66c0-1-.4-1.24-2-1.24S21.56,5.8,21.18,7Z"/><path class="a" d="M32.22,4.12l-.38,1.32,0,0A3.42,3.42,0,0,1,35.12,4c2.06,0,3,.74,3,2.34a16.14,16.14,0,0,1-.7,3.9c-.74,2.46-1.84,3.34-4.22,3.34-1.74,0-2.52-.4-2.68-1.42l0,0-1.12,5.28H27.54L30.38,4.12Zm-.44,2.82A14.68,14.68,0,0,0,31,10.58c0,1.06.56,1.5,2,1.5a2.26,2.26,0,0,0,2.62-1.9,15.79,15.79,0,0,0,.62-3.3c0-1-.46-1.38-1.88-1.38S32.24,5.84,31.78,6.94Z"/><path class="a" d="M48.44,3.88a4.91,4.91,0,0,0,.16-1.1c0-.84-.56-1.1-2.44-1.1-2.1,0-2.74.16-3.2.78a4,4,0,0,0-.62,2.14c0,.62.3.94,1,1.06a18.42,18.42,0,0,0,2.26.16,10,10,0,0,1,3,.38A1.77,1.77,0,0,1,49.72,8a9.25,9.25,0,0,1-1.1,4A3.56,3.56,0,0,1,46.3,13.4a17.4,17.4,0,0,1-3,.18c-2.26,0-3-.12-3.66-.6a2,2,0,0,1-.74-1.62,8.87,8.87,0,0,1,.28-2.08h2l-.06.3a7.36,7.36,0,0,0-.14,1.06,1.17,1.17,0,0,0,.4,1c.34.24.76.28,2.64.28,2.3,0,2.84-.24,3.24-1.38a6.63,6.63,0,0,0,.38-1.78.86.86,0,0,0-.52-.9c-.32-.14-.32-.14-2.62-.28S41.8,7.36,41.2,7a1.89,1.89,0,0,1-1-1.72,7,7,0,0,1,1.3-4.08C42.36.32,43.58,0,46.36,0c2.1,0,2.94.14,3.62.62a1.91,1.91,0,0,1,.7,1.62,6.94,6.94,0,0,1-.24,1.64Z"/><path class="a" d="M52.26,13.46H50.42l2-9.34h1.84Zm2.46-11.6H52.88L53.26.12H55.1Z"/><path class="a" d="M61.78,5.56H58.2l-1.1,5.16a4.58,4.58,0,0,0-.1.72c0,.52.22.68.94.68s1.1-.2,1.36-.9A5,5,0,0,0,59.6,10h1.6a5.67,5.67,0,0,1-.72,2.28c-.62.94-1.46,1.3-3,1.3s-2.42-.48-2.42-1.52a4.72,4.72,0,0,1,.16-1.16l1.14-5.34H55.1l.32-1.44h1.24L57.12,2H59L58.5,4.12h3.58Z"/><path class="a" d="M70.42,10.54c-.42,2.32-1.54,3-4.7,3-2.66,0-3.66-.62-3.66-2.28a14.33,14.33,0,0,1,1.38-5.6c.78-1.22,2-1.7,4.22-1.7a5.82,5.82,0,0,1,2.62.42,2,2,0,0,1,.88,1.82,12.66,12.66,0,0,1-.44,2.88H64.2A8.37,8.37,0,0,0,64,10.9c0,1,.46,1.24,2,1.24,1.94,0,2.28-.22,2.58-1.6ZM69.14,7.88a7.12,7.12,0,0,0,.2-1.34c0-.9-.42-1.14-2-1.14-2,0-2.42.38-2.86,2.48Z"/></svg>