<svg xmlns="http://www.w3.org/2000/svg" viewBox="0 0 177.76 44.06"><defs><style>.a{fill:#fff;}</style></defs><title>drop2</title><path class="a" d="M19.15,34.06H14.69l.89-3.36-.09-.05c-1.74,2.67-4,3.71-8,3.71C2.38,34.36,0,32.58,0,28.82a42.6,42.6,0,0,1,1.63-9.5c1.68-6.29,4.6-8.66,10.69-8.66,4.11,0,6,1,6.43,3.41l.1-.05,2.77-13h4.55ZM6.51,18.31a37,37,0,0,0-1.75,8.85c0,2.65,1.15,3.5,4.7,3.5,3.8,0,5.5-1.1,6.5-4.2a36.65,36.65,0,0,0,1.8-8.6c0-2.7-1.3-3.7-4.9-3.7C9.06,14.16,7.51,15.16,6.51,18.31Z"/><path class="a" d="M34.71,11.06l-.9,2.86,0,.05a7.73,7.73,0,0,1,6.9-3.34c3.19,0,4.9,1.38,4.9,4A18.63,18.63,0,0,1,45,19.06H40.83a13.37,13.37,0,0,0,.6-3.16c0-1.35-.9-2-2.86-2a5.57,5.57,0,0,0-4.76,2.26,11.48,11.48,0,0,0-1.36,4l-3,14H25l4.87-23Z"/><path class="a" d="M67.51,11.76a5.42,5.42,0,0,1,1.75,4.35,43.54,43.54,0,0,1-1.65,9.3c-2,7.15-4.45,9-12.35,9-4.1,0-6.15-.4-7.45-1.35s-1.75-2.5-1.75-4.55a48.1,48.1,0,0,1,2.4-11.75A8.33,8.33,0,0,1,54.36,11a21.08,21.08,0,0,1,5.75-.55C64.26,10.41,66.26,10.76,67.51,11.76Zm-14.7,6.15a45.47,45.47,0,0,0-2,9.55c0,2.6,1,3.2,5.1,3.2s5.65-.9,6.65-4.3a46.37,46.37,0,0,0,1.8-9.15c0-2.5-1-3.1-5.1-3.1S53.76,14.91,52.81,17.91Z"/><path class="a" d="M80.43,11.06l-.94,3.27.1.05c1.83-2.63,4-3.62,8-3.62,5.1,0,7.47,1.83,7.47,5.79a39.82,39.82,0,0,1-1.73,9.65c-1.83,6.09-4.55,8.26-10.44,8.26-4.3,0-6.23-1-6.63-3.51l-.1.05L73.4,44.06H68.85l7-33Zm-1.12,6.7a36.7,36.7,0,0,0-2,9.1c0,2.65,1.4,3.75,4.9,3.75,3.85,0,5.55-1.2,6.55-4.75a39.48,39.48,0,0,0,1.55-8.25c0-2.6-1.15-3.45-4.7-3.45C81.91,14.16,80.46,15,79.31,17.76Z"/><path class="a" d="M121.3,10.06a12.67,12.67,0,0,0,.41-2.85c0-2.18-1.45-2.85-6.32-2.85-5.45,0-7.11.41-8.3,2a10.32,10.32,0,0,0-1.61,5.55c0,1.6.78,2.43,2.49,2.75a50.84,50.84,0,0,0,5.86.41c4.72.26,6.07.41,7.68,1a4.57,4.57,0,0,1,3.11,4.71c0,3.06-1.45,8.35-2.85,10.38a9.27,9.27,0,0,1-6,3.57,45.11,45.11,0,0,1-7.83.47c-5.86,0-7.67-.31-9.49-1.56a5.22,5.22,0,0,1-1.92-4.2,23.2,23.2,0,0,1,.73-5.39h5.13l-.15.78a19,19,0,0,0-.37,2.75,3,3,0,0,0,1,2.49c.88.62,2,.72,6.85.72,6,0,7.36-.62,8.4-3.58a17.13,17.13,0,0,0,1-4.61,2.25,2.25,0,0,0-1.35-2.34c-.83-.36-.83-.36-6.79-.72-6.12-.31-6.9-.47-8.45-1.3a4.9,4.9,0,0,1-2.59-4.46c0-3.83,1.5-8.5,3.37-10.57C105.54.83,108.7,0,115.91,0c5.44,0,7.62.36,9.38,1.61a5,5,0,0,1,1.82,4.2,18.3,18.3,0,0,1-.62,4.25Z"/><path class="a" d="M130.51,34.06H126l4.88-23h4.53Zm6-29h-4.23l.88-4h4.23Z"/><path class="a" d="M154.31,14.06h-8.95l-2.73,12.78a11.35,11.35,0,0,0-.25,1.79c0,1.29.55,1.68,2.33,1.68,2,0,2.73-.49,3.37-2.23a11.72,11.72,0,0,0,.74-3h4c-.69,3.47-1,4.46-1.78,5.65-1.54,2.33-3.62,3.22-7.44,3.22-4.11,0-6-1.19-6-3.77a12,12,0,0,1,.39-2.87l2.83-13.23h-3.19l.8-4h3.31l1.07-5H147l-1.06,5h9.08Z"/><path class="a" d="M175.91,27.06c-1,5.5-3.85,7.3-11.75,7.3-6.65,0-9.15-1.55-9.15-5.7,0-4,1.8-11.45,3.45-14,1.95-3.05,4.9-4.25,10.55-4.25,3.2,0,5.2.35,6.55,1.05a5,5,0,0,1,2.2,4.55c0,1.65-.15,2.7-1.1,7h-16.3a23.27,23.27,0,0,0-.6,4.6c0,2.4,1.15,3.1,5.05,3.1,4.85,0,5.7-.55,6.45-3.7Zm-3.2-7a17.8,17.8,0,0,0,.5-3.35c0-2.25-1.05-2.85-5-2.85-4.95,0-6,1-7.15,6.2Z"/></svg>