<svg xmlns="http://www.w3.org/2000/svg" viewBox="0 0 177.9 43.65"><defs><style>.a{fill:#fff;}</style></defs><title>dropsite-logo</title><path class="a" d="M19.35,33.65h-4.5l.9-3.4-.1-.05C13.9,32.9,11.6,34,7.6,34,2.4,34,0,32.15,0,28.35a43.14,43.14,0,0,1,1.65-9.6C3.35,12.4,6.3,10,12.45,10c4.15,0,6.1,1.05,6.5,3.45l.1,0L21.85.3h4.6ZM6.65,17.9A37,37,0,0,0,4.9,26.75c0,2.65,1.15,3.5,4.7,3.5,3.8,0,5.5-1.1,6.5-4.2a36.65,36.65,0,0,0,1.8-8.6c0-2.7-1.3-3.7-4.9-3.7C9.2,13.75,7.65,14.75,6.65,17.9Z"/><path class="a" d="M34.6,10.3l-1,3,.05,0A8.14,8.14,0,0,1,41,9.85c3.35,0,5.15,1.45,5.15,4.2a19.72,19.72,0,0,1-.75,4.65H41a13.24,13.24,0,0,0,.6-3.15c0-1.35-.9-2-2.85-2A5.55,5.55,0,0,0,34,15.8a11.66,11.66,0,0,0-1.35,3.95l-3,13.9h-4.6L30,10.3Z"/><path class="a" d="M67.65,11.35A5.42,5.42,0,0,1,69.4,15.7,43.54,43.54,0,0,1,67.75,25c-2,7.15-4.45,9-12.35,9-4.1,0-6.15-.4-7.45-1.35s-1.75-2.5-1.75-4.55A48.1,48.1,0,0,1,48.6,16.3a8.33,8.33,0,0,1,5.9-5.75A21.08,21.08,0,0,1,60.25,10C64.4,10,66.4,10.35,67.65,11.35ZM53,17.5a45.47,45.47,0,0,0-2,9.55c0,2.6,1,3.2,5.1,3.2s5.65-.9,6.65-4.3a46.37,46.37,0,0,0,1.8-9.15c0-2.5-1-3.1-5.1-3.1S53.9,14.5,53,17.5Z"/><path class="a" d="M80.55,10.3l-1,3.3.1.05C81.55,11,83.8,10,87.8,10c5.15,0,7.55,1.85,7.55,5.85A40.34,40.34,0,0,1,93.6,25.6C91.75,31.75,89,34,83.05,34c-4.35,0-6.3-1-6.7-3.55l-.1.05-2.8,13.2h-4.6L76,10.3Zm-1.1,7.05a36.7,36.7,0,0,0-2,9.1c0,2.65,1.4,3.75,4.9,3.75C86.25,30.2,88,29,89,25.45A39.48,39.48,0,0,0,90.5,17.2c0-2.6-1.15-3.45-4.7-3.45C82.05,13.75,80.6,14.6,79.45,17.35Z"/><path class="a" d="M121.1,9.7A12.27,12.27,0,0,0,121.5,7c0-2.1-1.4-2.75-6.1-2.75-5.25,0-6.85.4-8,2a9.93,9.93,0,0,0-1.55,5.35c0,1.55.75,2.35,2.4,2.65a46.06,46.06,0,0,0,5.65.4c4.55.25,5.85.4,7.4.95a4.41,4.41,0,0,1,3,4.55c0,2.95-1.4,8.05-2.75,10a8.91,8.91,0,0,1-5.8,3.45,43.5,43.5,0,0,1-7.55.45c-5.65,0-7.4-.3-9.15-1.5A5,5,0,0,1,97.2,28.4a22.18,22.18,0,0,1,.7-5.2h4.95l-.15.75a18.4,18.4,0,0,0-.35,2.65,2.93,2.93,0,0,0,1,2.4c.85.6,1.9.7,6.6.7,5.75,0,7.1-.6,8.1-3.45a16.58,16.58,0,0,0,1-4.45,2.16,2.16,0,0,0-1.3-2.25c-.8-.35-.8-.35-6.55-.7-5.9-.3-6.65-.45-8.15-1.25a4.73,4.73,0,0,1-2.5-4.3c0-3.7,1.45-8.2,3.25-10.2C105.9.8,109,0,115.9,0c5.25,0,7.35.35,9,1.55A4.78,4.78,0,0,1,126.7,5.6a17.35,17.35,0,0,1-.6,4.1Z"/><path class="a" d="M130.65,33.65h-4.6l5-23.35h4.6Zm6.15-29h-4.6l1-4.35h4.6Z"/><path class="a" d="M154.45,13.9H145.5l-2.75,12.9a11.44,11.44,0,0,0-.25,1.8c0,1.3.55,1.7,2.35,1.7,2,0,2.75-.5,3.4-2.25A12.38,12.38,0,0,0,149,25h4c-.7,3.5-1,4.5-1.8,5.7-1.55,2.35-3.65,3.25-7.5,3.25-4.15,0-6-1.2-6-3.8a11.79,11.79,0,0,1,.4-2.9L140.9,13.9h-3.15l.8-3.6h3.1l1.15-5.4h4.6l-1.15,5.4h8.95Z"/><path class="a" d="M176.05,26.35C175,32.15,172.2,34,164.3,34c-6.65,0-9.15-1.55-9.15-5.7s1.8-11.45,3.45-14c2-3.05,4.9-4.25,10.55-4.25,3.2,0,5.2.35,6.55,1.05a5,5,0,0,1,2.2,4.55c0,1.65-.15,2.7-1.1,7.2H160.5a20.92,20.92,0,0,0-.6,4.45c0,2.4,1.15,3.1,5,3.1,4.85,0,5.7-.55,6.45-4Zm-3.2-6.65a17.8,17.8,0,0,0,.5-3.35c0-2.25-1-2.85-4.95-2.85-5,0-6.05.95-7.15,6.2Z"/></svg>