<svg xmlns="http://www.w3.org/2000/svg" viewBox="0 0 1919.77 157.89"><defs><style>.a{fill:none;}.a,.b{stroke:#000;stroke-miterlimit:10;}</style></defs><title>linegraph</title><path class="a" d="M2.56,120.5c150,53,222.74-76.32,407-49,95.2,14.11,144.17,27.51,242.94,40,234.1,29.6,281.24-88.88,505.23-68,132,12.3,157.51,57.33,295.38,48,84.56-5.72,118.74-25.62,200.9-28,113.78-3.3,206.49,30.27,265.55,58"/><path class="a" d="M.06,155.5c188.5,23,156.94-172,264.5-131,33.34,12.71,127.26,88.29,165,102C585,183,626.06,13.66,813.56,4.5c219-10.69,273.17,169.68,461,124,93.12-22.65,157.42-93.67,237-112,156.72-36.1,252,135,407.5,125"/><circle class="b" cx="229.56" cy="20.5" r="5"/><circle class="b" cx="413.56" cy="119.5" r="5"/><circle class="b" cx="75.56" cy="133.5" r="5"/><circle class="b" cx="637.56" cy="109.5" r="5"/><circle class="b" cx="797.56" cy="5.5" r="5"/><circle class="b" cx="498.56" cy="87.5" r="5"/><circle class="b" cx="876.56" cy="91.5" r="5"/><circle class="b" cx="1022.56" cy="59.5" r="5"/><circle class="b" cx="1112.56" cy="40.5" r="5"/><circle class="b" cx="1245.56" cy="133.5" r="5"/><circle class="b" cx="1204.56" cy="50.5" r="5"/><circle class="b" cx="1523.56" cy="14.5" r="5"/><circle class="b" cx="1466.56" cy="90.5" r="5"/><circle class="b" cx="1686.56" cy="63.5" r="5"/><circle class="b" cx="1859.56" cy="135.5" r="5"/></svg>