<svg xmlns="http://www.w3.org/2000/svg" viewBox="0 0 11756 4713"><defs><style>  .a,.f{fill:none;}.b{clip-path:url(#a);}.c{fill:#fff;}.d{fill:url(#c);}.e{opacity:0.25;}.f{stroke:#fff;stroke-miterlimit:10;stroke-width:1000px;}</style><clipPath id="a"><rect class="a" width="11756" height="4713"/></clipPath><linearGradient id="c" x1="6611.3" y1="5806.5" x2="5144.7" y2="-1093.5" gradientUnits="userSpaceOnUse"><stop offset="0" stop-color="#2af598"/><stop offset="1" stop-color="#009efd"/></linearGradient></defs><title>  minty-duo</title><g class="b"><rect class="c" width="11756" height="4713"/><path class="c" d="M-1332 3955.1c2478 0 2478 1091.8 4956 1091.8S6102 3955.1 8580 3955.1s2478 1091.8 4956 1091.8"/><path class="c" d="M-1332 3955.1c2478 0 2478 1091.8 4956 1091.8S6102 3955.1 8580 3955.1s2478 1091.8 4956 1091.8"/><path class="c" d="M-1332 4080.1c2478 0 2478 1091.8 4956 1091.8S6102 4080.1 8580 4080.1s2478 1091.8 4956 1091.8"/><path class="c" d="M-1332 4080.1c2478 0 2478 1091.8 4956 1091.8S6102 4080.1 8580 4080.1s2478 1091.8 4956 1091.8"/><rect class="c" x="7164" y="4446" width="2754" height="513"/></g><g class="b"><rect class="d" width="11756" height="4713"/><g class="e"><path class="f" d="M-1332 3955.1c2478 0 2478 1091.8 4956 1091.8S6102 3955.1 8580 3955.1s2478 1091.8 4956 1091.8"/></g><path class="f" d="M-1332 4080.1c2478 0 2478 1091.8 4956 1091.8S6102 4080.1 8580 4080.1s2478 1091.8 4956 1091.8"/><rect class="f" x="7164" y="4446" width="2754" height="513"/></g></svg>
