<svg xmlns="http://www.w3.org/2000/svg" xmlns:xlink="http://www.w3.org/1999/xlink" viewBox="0 0 11756 4713"><defs><style>.a,.e{fill:none;}.b{clip-path:url(#a);}.c{fill:#fff;}.d{fill:url(#c);}.e{stroke:#fff;stroke-miterlimit:10;stroke-width:1000px;}</style><clipPath id="a"><rect class="a" width="11756" height="4713"/></clipPath><linearGradient id="c" x1="9995.25" y1="6473.75" x2="1760.75" y2="-1760.75" gradientUnits="userSpaceOnUse"><stop offset="0" stop-color="#2afadf"/><stop offset="0.37" stop-color="#35bfea"/><stop offset="1" stop-color="#465efb"/></linearGradient></defs><title>minty-wave</title><g class="b"><rect class="c" width="11756" height="4713"/><path class="c" d="M-1332,4080.12c2478,0,2478,1091.76,4956,1091.76S6102,4080.12,8580,4080.12s2478,1091.76,4956,1091.76"/><path class="c" d="M-1332,4080.12c2478,0,2478,1091.76,4956,1091.76S6102,4080.12,8580,4080.12s2478,1091.76,4956,1091.76"/><rect class="c" x="7164" y="4446" width="2754" height="513"/></g><g class="b"><rect class="d" width="11756" height="4713"/><path class="e" d="M-1332,4080.12c2478,0,2478,1091.76,4956,1091.76S6102,4080.12,8580,4080.12s2478,1091.76,4956,1091.76"/><rect class="e" x="7164" y="4446" width="2754" height="513"/></g></svg>