<svg xmlns="http://www.w3.org/2000/svg" xmlns:xlink="http://www.w3.org/1999/xlink" viewBox="0 0 1920 1080"><defs><style>.a{fill:none;opacity:0.5;}.a,.b,.c{stroke:#fff;stroke-miterlimit:10;}.b{fill:blue;}.c{fill:#fff;}.d,.e,.f{opacity:0.1;}.d{fill:url(#a);}.e{fill:url(#b);}.f{fill:url(#c);}</style><linearGradient id="a" x1="208" y1="517.5" x2="1431" y2="517.5" gradientUnits="userSpaceOnUse"><stop offset="0" stop-color="#fff"/><stop offset="1" stop-color="#fff" stop-opacity="0"/></linearGradient><linearGradient id="b" x1="56.08" y1="517.34" x2="1349" y2="517.34" xlink:href="#a"/><linearGradient id="c" x1="0" y1="628.94" x2="1337.44" y2="628.94" gradientTransform="matrix(0.92, -0.08, -0.08, 0.92, 0.25, 0.25)" xlink:href="#a"/></defs><title>testsvgbg</title><path class="a" d="M2.5,952.5c150,53,222.74-76.32,407-49,95.2,14.11,144.17,27.51,242.93,40,234.11,29.6,281.25-88.88,505.24-68,132,12.3,157.51,57.33,295.38,48,84.56-5.72,118.74-25.62,200.9-28,113.78-3.3,206.49,30.27,265.55,58"/><path class="a" d="M0,987.5c188.5,23,156.94-172,264.5-131,33.34,12.71,127.26,88.29,165,102,155.43,56.47,196.5-112.84,384-122,219-10.69,273.17,169.68,461,124,93.12-22.65,157.42-93.67,237-112,156.72-36.1,252,135,407.5,125"/><circle class="b" cx="229.5" cy="852.5" r="5"/><circle class="b" cx="413.5" cy="951.5" r="5"/><circle class="b" cx="75.5" cy="965.5" r="5"/><circle class="b" cx="637.5" cy="941.5" r="5"/><circle class="b" cx="797.5" cy="837.5" r="5"/><circle class="b" cx="498.5" cy="919.5" r="5"/><circle class="b" cx="876.5" cy="923.5" r="5"/><circle class="b" cx="1022.5" cy="891.5" r="5"/><circle class="b" cx="1112.5" cy="872.5" r="5"/><circle class="b" cx="1245.5" cy="965.5" r="5"/><circle class="b" cx="1204.5" cy="882.5" r="5"/><circle class="b" cx="1523.5" cy="846.5" r="5"/><circle class="b" cx="1466.5" cy="922.5" r="5"/><circle class="b" cx="1686.5" cy="895.5" r="5"/><circle class="b" cx="1859.5" cy="967.5" r="5"/><path class="c" d="M1920,1077.5H1.5v-71q480.14,37,960.25,37,479.12,0,958.25-37Z"/><polygon class="d" points="1431 1026 1269 1035 208 0 380 0 1431 1026"/><polygon class="e" points="1349 1035 1196 1035 56.08 -0.33 149 0 1349 1035"/><polygon class="f" points="1119.77 1040.23 1008 1044 -5.46 62.54 3 0 1119.77 1040.23"/></svg>