<svg xmlns="http://www.w3.org/2000/svg" xmlns:xlink="http://www.w3.org/1999/xlink" viewBox="0 0 1925.96 1078.33"><defs><style>.a{fill:none;opacity:0.5;}.a,.b,.c{stroke:#fff;stroke-miterlimit:10;}.b{fill:blue;}.c{fill:#fff;}.d,.e,.f{opacity:0.1;}.d{fill:url(#a);}.e{fill:url(#b);}.f{fill:url(#c);}</style><linearGradient id="a" x1="213.46" y1="517.83" x2="1436.46" y2="517.83" gradientUnits="userSpaceOnUse"><stop offset="0" stop-color="#fff"/><stop offset="1" stop-color="#fff" stop-opacity="0"/></linearGradient><linearGradient id="b" x1="61.54" y1="517.66" x2="1354.46" y2="517.66" xlink:href="#a"/><linearGradient id="c" x1="5.46" y1="629.27" x2="1342.89" y2="629.27" gradientTransform="matrix(0.92, -0.08, -0.08, 0.92, 0.74, 0.74)" xlink:href="#a"/></defs><title>testsvgbg</title><path class="a" d="M8,952.83c150,53,222.74-76.33,407-49,95.19,14.11,144.17,27.51,242.93,40,234.1,29.6,281.24-88.88,505.24-68,132,12.3,157.51,57.32,295.38,48,84.56-5.73,118.73-25.62,200.9-28,113.78-3.3,206.49,30.27,265.55,58"/><path class="a" d="M5.46,987.83c188.5,23,156.94-172,264.5-131,33.33,12.7,127.25,88.28,165,102,155.43,56.46,196.5-112.85,384-122,219-10.7,273.17,169.67,461,124,93.12-22.65,157.41-93.67,237-112,156.72-36.1,252,135,407.5,125"/><circle class="b" cx="234.96" cy="852.83" r="5"/><circle class="b" cx="418.96" cy="951.83" r="5"/><circle class="b" cx="80.96" cy="965.83" r="5"/><circle class="b" cx="642.96" cy="941.83" r="5"/><circle class="b" cx="802.96" cy="837.83" r="5"/><circle class="b" cx="503.96" cy="919.83" r="5"/><circle class="b" cx="881.96" cy="923.83" r="5"/><circle class="b" cx="1027.96" cy="891.83" r="5"/><circle class="b" cx="1117.96" cy="872.83" r="5"/><circle class="b" cx="1250.96" cy="965.83" r="5"/><circle class="b" cx="1209.96" cy="882.83" r="5"/><circle class="b" cx="1528.96" cy="846.83" r="5"/><circle class="b" cx="1471.96" cy="922.83" r="5"/><circle class="b" cx="1691.96" cy="895.83" r="5"/><circle class="b" cx="1864.96" cy="967.83" r="5"/><path class="c" d="M1925.46,1077.83H7v-71q480.14,37,960.25,37,479.11,0,958.25-37Z"/><polygon class="d" points="1436.46 1026.33 1274.46 1035.33 213.46 0.33 385.46 0.33 1436.46 1026.33"/><polygon class="e" points="1354.46 1035.33 1201.46 1035.33 61.54 0 154.46 0.33 1354.46 1035.33"/><polygon class="f" points="1125.23 1040.55 1013.46 1044.33 0 62.87 8.46 0.33 1125.23 1040.55"/></svg>