<svg xmlns="http://www.w3.org/2000/svg" xmlns:xlink="http://www.w3.org/1999/xlink" viewBox="0 0 1920 1080"><defs><style>.a,.d{fill:none;}.b{clip-path:url(#a);}.c,.e{fill:blue;}.d,.e,.f{stroke:#fff;stroke-miterlimit:10;}.d{opacity:0.5;}.f{fill:#fff;}.g,.h,.i{opacity:0.1;}.g{fill:url(#b);}.h{fill:url(#c);}.i{fill:url(#d);}</style><clipPath id="a"><rect class="a" x="0.5" y="0.5" width="1920" height="1080"/></clipPath><linearGradient id="b" x1="208" y1="517.5" x2="1431" y2="517.5" gradientUnits="userSpaceOnUse"><stop offset="0" stop-color="#fff"/><stop offset="1" stop-color="#fff" stop-opacity="0"/></linearGradient><linearGradient id="c" x1="56.08" y1="517.34" x2="1349" y2="517.34" xlink:href="#b"/><linearGradient id="d" x1="-0.3" y1="633.45" x2="1343.75" y2="633.45" gradientTransform="matrix(0.92, -0.08, -0.08, 0.92, 0.25, 0.25)" xlink:href="#b"/></defs><title>testsvgbg3</title><g class="b"><rect class="c" width="1920" height="1080"/><path class="d" d="M.5,954.5c150,53,224.74-78.32,409-51,95.2,14.11,144.17,27.51,242.93,40,234.11,29.6,281.25-88.88,505.24-68,132,12.3,157.51,57.33,295.38,48,84.56-5.72,118.74-25.62,200.9-28,113.78-3.3,206.49,30.27,265.55,58"/><path class="d" d="M0,987.5c188.5,23,156.94-172,264.5-131,33.34,12.71,127.26,88.29,165,102,155.43,56.47,196.5-112.84,384-122,219-10.69,273.17,169.68,461,124,93.12-22.65,157.42-93.67,237-112,156.72-36.1,252,135,407.5,125"/><circle class="e" cx="229.5" cy="852.5" r="5"/><circle class="e" cx="413.5" cy="951.5" r="5"/><circle class="e" cx="77" cy="967" r="4.5"/><circle class="e" cx="637.5" cy="941.5" r="5"/><circle class="e" cx="797.5" cy="837.5" r="5"/><circle class="e" cx="498.5" cy="919.5" r="5"/><circle class="e" cx="876.5" cy="923.5" r="5"/><circle class="e" cx="1022.5" cy="891.5" r="5"/><circle class="e" cx="1112.5" cy="872.5" r="5"/><circle class="e" cx="1245.5" cy="965.5" r="5"/><circle class="e" cx="1204.5" cy="882.5" r="5"/><circle class="e" cx="1523.5" cy="846.5" r="5"/><circle class="e" cx="1466.5" cy="922.5" r="5"/><circle class="e" cx="1686.5" cy="895.5" r="5"/><circle class="e" cx="1859.5" cy="967.5" r="5"/><path class="f" d="M1932,1099H-12v-73.79q486.53,38.51,973,38.46,485.49,0,971-38.46Z"/><polygon class="g" points="1431 1026 1269 1035 208 0 380 0 1431 1026"/><polygon class="h" points="1349 1035 1196 1035 56.08 -0.33 149 0 1349 1035"/><polygon class="i" points="1124.77 1048.23 1013 1052 0 71 0 0 1124.77 1048.23"/></g></svg>