<svg xmlns="http://www.w3.org/2000/svg" xmlns:xlink="http://www.w3.org/1999/xlink" viewBox="0 0 11756 4713"><defs><style>.a,.e{fill:none;}.b{clip-path:url(#a);}.c{fill:#2e4be0;}.d{fill:#fff;}.e{stroke:#000;stroke-miterlimit:10;stroke-width:20px;}</style><clipPath id="a"><rect class="a" width="11756" height="4713"/></clipPath></defs><title>testbgwide</title><g class="b"><path class="c" d="M11925,4221c-2022,198.68-4055,585.69-6077,585-2008-.68-4005-387.68-6013-585L0,0H11756Q11840.5,2110.5,11925,4221Z"/><path class="d" d="M11921.5,5013H-165.5V4221Q2855.74,4616.94,5877,4617q3022.29.06,6044.5-396Z"/><rect class="e" x="1170" y="765" width="198" height="198"/><rect class="e" x="1692" y="774" width="198" height="198"/><rect class="e" x="2124" y="765" width="198" height="198"/><circle class="e" cx="1741.5" cy="1417.5" r="103.5"/><circle class="e" cx="2209.5" cy="1408.5" r="103.5"/><circle class="e" cx="2605.5" cy="1462.5" r="103.5"/><path class="e" d="M1602,1791h99v72h90v72"/><path class="e" d="M2178,1809h99v72h90v72"/><path class="e" d="M2637,1782h99v72h90v72"/><path class="e" d="M1323,2336c39.75,0,39.75,62,79.5,62s39.75-62,79.5-62,39.74,62,79.49,62,39.75-62,79.5-62,39.75,62,79.51,62,39.75-62,79.5-62"/><path class="e" d="M1953,2282c39.75,0,39.75,62,79.5,62s39.75-62,79.5-62,39.74,62,79.49,62,39.75-62,79.5-62,39.75,62,79.51,62,39.75-62,79.5-62"/><path class="e" d="M2592,2246c39.75,0,39.75,62,79.5,62s39.75-62,79.5-62,39.74,62,79.49,62,39.75-62,79.5-62,39.75,62,79.51,62,39.75-62,79.5-62"/><polygon class="e" points="1538 2646.26 1591.33 2738.63 1644.66 2831 1538 2831 1431.34 2831 1484.67 2738.63 1538 2646.26"/><polygon class="e" points="1952 2655.26 2005.33 2747.63 2058.66 2840 1952 2840 1845.34 2840 1898.67 2747.63 1952 2655.26"/><polygon class="e" points="2321 2668.26 2374.33 2760.63 2427.66 2853 2321 2853 2214.34 2853 2267.67 2760.63 2321 2668.26"/><path class="e" d="M1543.5,3199.5l-103.5-.19c.1-56.71,46.79-103.31,103.5-103.31s103.5,46.72,103.5,103.5Z"/><path class="e" d="M1975.5,3199.5l-103.5-.19c.1-56.71,46.79-103.31,103.5-103.31s103.5,46.72,103.5,103.5Z"/><path class="e" d="M2362.5,3186.5l-103.5-.19c.1-56.71,46.79-103.31,103.5-103.31s103.5,46.72,103.5,103.5Z"/></g></svg>